<svg width="43" height="38" viewBox="0 0 43 38" fill="none" xmlns="http://www.w3.org/2000/svg">
<g clip-path="url(#clip0_110_5)">
<path d="M19.7083 14.25H23.2916V9.50001H28.6666V6.33334H23.2916V1.58334H19.7083V6.33334H14.3333V9.50001H19.7083V14.25ZM12.5416 28.5C10.5708 28.5 8.97621 29.925 8.97621 31.6667C8.97621 33.4083 10.5708 34.8333 12.5416 34.8333C14.5125 34.8333 16.125 33.4083 16.125 31.6667C16.125 29.925 14.5125 28.5 12.5416 28.5ZM30.4583 28.5C28.4875 28.5 26.8929 29.925 26.8929 31.6667C26.8929 33.4083 28.4875 34.8333 30.4583 34.8333C32.4291 34.8333 34.0416 33.4083 34.0416 31.6667C34.0416 29.925 32.4291 28.5 30.4583 28.5ZM12.8462 23.3542L12.9 23.1642L14.5125 20.5833H27.8604C29.2041 20.5833 30.3866 19.9342 30.9958 18.9525L37.9116 7.85334L34.7941 6.33334H34.7762L32.8054 9.50001L27.8604 17.4167H15.2829L15.05 16.9892L11.0366 9.50001L9.33454 6.33334L7.65038 3.16668H1.79163V6.33334H5.37496L11.825 18.3508L9.40621 22.23C9.11954 22.6733 8.95829 23.1958 8.95829 23.75C8.95829 25.4917 10.5708 26.9167 12.5416 26.9167H34.0416V23.75H13.2941C13.0612 23.75 12.8462 23.5758 12.8462 23.3542Z" fill="#F3F3F3"/>
</g>
<defs>
<clipPath id="clip0_110_5">
<rect width="43" height="38" fill="white"/>
</clipPath>
</defs>
</svg>
